<svg width="61" height="54" viewBox="0 0 61 54" fill="none" xmlns="http://www.w3.org/2000/svg">
<path d="M30.5001 53.8408C15.692 53.8408 3.61768 41.7665 3.61768 26.9584C3.61768 12.0743 15.692 0 30.5001 0C45.3082 0 57.3826 12.0743 57.3826 26.8824C57.3826 41.7665 45.3082 53.8408 30.5001 53.8408ZM30.5001 0.759391C16.0717 0.759391 4.37707 12.53 4.37707 26.9584C4.37707 41.3868 16.0717 53.0814 30.5001 53.0814C44.9285 53.0814 56.6232 41.3868 56.6232 26.9584C56.6232 12.53 44.9285 0.759391 30.5001 0.759391Z" fill="white"/>
<path d="M53.7374 40.1717H7.2627L30.5001 10.8593L30.576 11.0111L53.7374 40.1717ZM7.79427 39.868H53.2059L30.5001 11.2389L7.79427 39.868Z" fill="white"/>
<path d="M30.5001 42.9815L30.4241 42.8297L7.2627 13.669H53.7374L30.5001 42.9815ZM7.79427 13.8969L30.5001 42.5259L53.2059 13.8969H7.79427Z" fill="white"/>
<path d="M30.5001 11.3149C27.3866 11.3149 24.8047 8.80892 24.8047 5.61947C24.8047 2.50597 27.3107 -0.0759583 30.5001 -0.0759583C33.6136 -0.0759583 36.1956 2.43003 36.1956 5.61947C36.1196 8.80892 33.6136 11.3149 30.5001 11.3149ZM30.5001 0.759372C27.7663 0.759372 25.5641 2.96161 25.5641 5.69541C25.5641 8.42922 27.7663 10.6315 30.5001 10.6315C33.2339 10.6315 35.4362 8.42922 35.4362 5.69541C35.4362 2.96161 33.2339 0.759372 30.5001 0.759372Z" fill="white"/>
<path d="M16.7552 7.66985C14.8567 7.66985 13.3379 6.15106 13.3379 4.25259C13.3379 2.35411 14.8567 0.835327 16.7552 0.835327C18.6536 0.835327 20.1724 2.35411 20.1724 4.25259C20.1724 6.15106 18.6536 7.66985 16.7552 7.66985ZM16.7552 1.13908C15.0086 1.13908 13.6416 2.50599 13.6416 4.25259C13.6416 5.99919 15.0086 7.36609 16.7552 7.36609C18.5017 7.36609 19.8687 5.99919 19.8687 4.25259C19.8687 2.50599 18.5017 1.13908 16.7552 1.13908Z" fill="white"/>
<path d="M3.99734 30.2997C2.09886 30.2997 0.580078 28.7809 0.580078 26.8824C0.580078 25.0599 2.09886 23.5411 3.99734 23.5411C5.89582 23.5411 7.4146 25.0599 7.4146 26.9584C7.33866 28.7809 5.81988 30.2997 3.99734 30.2997ZM3.99734 23.7689C2.25074 23.7689 0.883835 25.1358 0.883835 26.8824C0.883835 28.629 2.25074 29.9959 3.99734 29.9959C5.74394 29.9959 7.11084 28.629 7.11084 26.8824C7.11084 25.2118 5.668 23.7689 3.99734 23.7689Z" fill="white"/>
<path d="M57.003 30.2997C55.1045 30.2997 53.5857 28.7809 53.5857 26.8824C53.5857 24.984 55.1045 23.4652 57.003 23.4652C58.9014 23.4652 60.4202 24.984 60.4202 26.8824C60.4202 28.7809 58.9014 30.2997 57.003 30.2997ZM57.003 23.7689C55.2564 23.7689 53.8894 25.1358 53.8894 26.8824C53.8894 28.629 55.2564 29.9959 57.003 29.9959C58.7496 29.9959 60.1165 28.629 60.1165 26.8824C60.1165 25.2118 58.7496 23.7689 57.003 23.7689Z" fill="white"/>
<path d="M44.4729 7.66985C42.5744 7.66985 41.0557 6.15106 41.0557 4.25259C41.0557 2.35411 42.5744 0.835327 44.4729 0.835327C46.3714 0.835327 47.8902 2.35411 47.8902 4.25259C47.8902 6.15106 46.3714 7.66985 44.4729 7.66985ZM44.4729 1.13908C42.7263 1.13908 41.3594 2.50599 41.3594 4.25259C41.3594 5.99919 42.7263 7.36609 44.4729 7.36609C46.2195 7.36609 47.6624 5.99919 47.6624 4.25259C47.6624 2.50599 46.2195 1.13908 44.4729 1.13908Z" fill="white"/>
<path d="M16.7552 53.0055C14.8567 53.0055 13.3379 51.4867 13.3379 49.5882C13.3379 47.6897 14.8567 46.171 16.7552 46.171C18.6536 46.171 20.1724 47.6897 20.1724 49.5882C20.1724 51.4867 18.6536 53.0055 16.7552 53.0055ZM16.7552 46.4747C15.0086 46.4747 13.6416 47.8416 13.6416 49.5882C13.6416 51.3348 15.0086 52.7017 16.7552 52.7017C18.5017 52.7017 19.8687 51.3348 19.8687 49.5882C19.8687 47.8416 18.5017 46.4747 16.7552 46.4747Z" fill="white"/>
<path d="M44.4729 53.0055C42.5744 53.0055 41.0557 51.4867 41.0557 49.5882C41.0557 47.6897 42.5744 46.171 44.4729 46.171C46.3714 46.171 47.8902 47.6897 47.8902 49.5882C47.8902 51.4867 46.3714 53.0055 44.4729 53.0055ZM44.4729 46.4747C42.7263 46.4747 41.3594 47.8416 41.3594 49.5882C41.3594 51.3348 42.7263 52.7017 44.4729 52.7017C46.2195 52.7017 47.5864 51.3348 47.5864 49.5882C47.6624 47.8416 46.2195 46.4747 44.4729 46.4747Z" fill="white"/>
<path d="M13.4898 30.4516C11.5154 30.4516 9.99658 28.8569 9.99658 26.9584C9.99658 24.984 11.5913 23.4652 13.4898 23.4652C15.4642 23.4652 16.983 25.0599 16.983 26.9584C17.0589 28.8569 15.4642 30.4516 13.4898 30.4516ZM13.4898 23.693C11.6672 23.693 10.2244 25.1358 10.2244 26.9584C10.2244 28.7809 11.6672 30.2238 13.4898 30.2238C15.3123 30.2238 16.7552 28.7809 16.7552 26.9584C16.7552 25.1358 15.3123 23.693 13.4898 23.693Z" fill="white"/>
<path d="M47.5105 30.4516C45.5361 30.4516 44.0173 28.8569 44.0173 26.9584C44.0173 24.984 45.6121 23.4652 47.5105 23.4652C49.4849 23.4652 51.0037 25.0599 51.0037 26.9584C51.0037 28.8569 49.409 30.4516 47.5105 30.4516ZM47.5105 23.693C45.688 23.693 44.2452 25.1358 44.2452 26.9584C44.2452 28.7809 45.688 30.2238 47.5105 30.2238C49.3331 30.2238 50.7759 28.7809 50.7759 26.9584C50.7759 25.1358 49.2571 23.693 47.5105 23.693Z" fill="white"/>
<path d="M30.5001 53.6889C27.3866 53.6889 24.8047 51.1829 24.8047 48.1454C24.8047 45.0319 27.3107 42.6018 30.5001 42.6018C33.6136 42.6018 36.1956 45.1078 36.1956 48.1454C36.1196 51.1829 33.6136 53.6889 30.5001 53.6889ZM30.5001 43.2853C27.7663 43.2853 25.5641 45.4875 25.5641 48.1454C25.5641 50.8032 27.7663 53.0055 30.5001 53.0055C33.2339 53.0055 35.4362 50.8032 35.4362 48.1454C35.4362 45.4116 33.2339 43.2853 30.5001 43.2853Z" fill="white"/>
<path d="M30.5762 13.8209H30.3484V26.9584H30.5762V13.8209Z" fill="white"/>
<path d="M27.3829 15.0002L27.1628 15.0591L30.3466 26.9418L30.5667 26.8828L27.3829 15.0002Z" fill="white"/>
<path d="M25.2573 17.6857L25.0601 17.7996L30.3758 27.0064L30.5731 26.8925L25.2573 17.6857Z" fill="white"/>
<path d="M23.5605 19.8351L23.3994 19.9962L30.4337 27.0304L30.5948 26.8693L23.5605 19.8351Z" fill="white"/>
<path d="M21.9079 21.8728L21.7939 22.0701L30.4089 27.0441L30.5228 26.8468L21.9079 21.8728Z" fill="white"/>
<path d="M20.245 24.0289L20.186 24.249L30.455 27.0004L30.5139 26.7803L20.245 24.0289Z" fill="white"/>
<path d="M43.182 27.0343H17.6665L30.5002 10.7074L30.5762 10.8593L43.182 27.0343ZM30.3483 26.8065H42.6505L30.5002 11.1631L18.1981 26.8065H30.3483Z" fill="white"/>
<path d="M33.3869 14.9987L30.2043 26.8825L30.4244 26.9415L33.607 15.0576L33.3869 14.9987Z" fill="white"/>
<path d="M35.547 17.6479L30.2397 26.8601L30.4371 26.9738L35.7444 17.7617L35.547 17.6479Z" fill="white"/>
<path d="M37.284 19.7655L30.2498 26.7997L30.4108 26.9608L37.4451 19.9266L37.284 19.7655Z" fill="white"/>
<path d="M38.8988 21.8562L30.2788 26.8222L30.3925 27.0196L39.0125 22.0536L38.8988 21.8562Z" fill="white"/>
<path d="M40.857 24.1254L30.3257 26.7729L30.3812 26.9938L40.9126 24.3463L40.857 24.1254Z" fill="white"/>
<path d="M30.5762 26.8065H30.3484V39.944H30.5762V26.8065Z" fill="white"/>
<path d="M30.3608 26.7512L27.177 38.6338L27.3971 38.6927L30.5808 26.8101L30.3608 26.7512Z" fill="white"/>
<path d="M30.4169 26.7333L25.1096 35.9455L25.307 36.0592L30.6143 26.847L30.4169 26.7333Z" fill="white"/>
<path d="M30.3861 26.6878L23.3508 33.721L23.5119 33.8822L30.5471 26.8489L30.3861 26.6878Z" fill="white"/>
<path d="M30.3905 26.719L21.7715 31.6871L21.8853 31.8845L30.5042 26.9164L30.3905 26.719Z" fill="white"/>
<path d="M30.4345 26.6558L20.1655 29.4072L20.2245 29.6272L30.4934 26.8758L30.4345 26.6558Z" fill="white"/>
<path d="M30.4405 26.783L30.2209 26.8438L33.5259 38.7726L33.7454 38.7117L30.4405 26.783Z" fill="white"/>
<path d="M30.4395 26.7242L30.2422 26.8381L35.6339 36.1765L35.8312 36.0625L30.4395 26.7242Z" fill="white"/>
<path d="M30.446 26.677L30.2849 26.838L37.4266 33.9797L37.5876 33.8186L30.446 26.677Z" fill="white"/>
<path d="M39.0811 31.9703L30.4241 26.9583L30.5 26.7305L39.1571 31.7425L39.0811 31.9703Z" fill="white"/>
<path d="M30.3585 26.685L30.2996 26.9051L40.8619 29.7351L40.9209 29.515L30.3585 26.685Z" fill="white"/>
<path d="M31.8669 26.8824C31.8669 27.6418 31.2594 28.2493 30.5 28.2493C29.7406 28.2493 29.1331 27.6418 29.1331 26.8824C29.1331 26.123 29.7406 25.5155 30.5 25.5155C31.2594 25.5914 31.8669 26.199 31.8669 26.8824Z" fill="white"/>
<path d="M14.4009 26.9584C14.4009 27.4899 14.0212 27.8696 13.4896 27.8696C12.9581 27.8696 12.5784 27.4899 12.5784 26.9584C12.5784 26.4268 12.9581 26.0471 13.4896 26.0471C14.0212 26.0471 14.4009 26.4268 14.4009 26.9584Z" fill="white"/>
<path d="M48.4217 26.9584C48.4217 27.4899 48.042 27.8696 47.5104 27.8696C46.9788 27.8696 46.5991 27.4899 46.5991 26.9584C46.5991 26.4268 46.9788 26.0471 47.5104 26.0471C48.042 26.0471 48.4217 26.4268 48.4217 26.9584Z" fill="white"/>
<path d="M31.4114 48.0694C31.4114 48.601 31.0317 48.9807 30.5001 48.9807C29.9686 48.9807 29.5889 48.601 29.5889 48.0694C29.5889 47.5378 29.9686 47.1581 30.5001 47.1581C31.0317 47.1581 31.4114 47.5378 31.4114 48.0694Z" fill="white"/>
<path d="M31.4114 5.69542C31.4114 6.22699 31.0317 6.60669 30.5001 6.60669C29.9686 6.60669 29.5889 6.22699 29.5889 5.69542C29.5889 5.16384 29.9686 4.78415 30.5001 4.78415C31.0317 4.78415 31.4114 5.16384 31.4114 5.69542Z" fill="white"/>
<path d="M17.8181 4.25258C17.8181 4.78415 17.4384 5.16385 16.9069 5.16385C16.3753 5.16385 15.9956 4.78415 15.9956 4.25258C15.9956 3.721 16.3753 3.34131 16.9069 3.34131C17.4384 3.34131 17.8181 3.79694 17.8181 4.25258Z" fill="white"/>
<path d="M45.3841 4.25258C45.3841 4.78415 45.0044 5.16385 44.4728 5.16385C43.9412 5.16385 43.5615 4.78415 43.5615 4.25258C43.5615 3.721 43.9412 3.34131 44.4728 3.34131C45.0044 3.34131 45.3841 3.79694 45.3841 4.25258Z" fill="white"/>
<path d="M17.8181 49.5882C17.8181 50.1198 17.4384 50.4995 16.9069 50.4995C16.3753 50.4995 15.9956 50.1198 15.9956 49.5882C15.9956 49.0566 16.3753 48.6769 16.9069 48.6769C17.4384 48.6769 17.8181 49.0566 17.8181 49.5882Z" fill="white"/>
<path d="M4.90848 26.8065C4.90848 27.338 4.52878 27.7177 3.99721 27.7177C3.46563 27.7177 3.08594 27.338 3.08594 26.8065C3.08594 26.2749 3.46563 25.8952 3.99721 25.8952C4.45284 25.8952 4.90848 26.2749 4.90848 26.8065Z" fill="white"/>
<path d="M57.9141 26.8065C57.9141 27.338 57.5344 27.7177 57.0028 27.7177C56.4713 27.7177 56.0916 27.338 56.0916 26.8065C56.0916 26.2749 56.4713 25.8952 57.0028 25.8952C57.5344 25.8952 57.9141 26.2749 57.9141 26.8065Z" fill="white"/>
<path d="M45.3841 49.5882C45.3841 50.1198 45.0044 50.4995 44.4728 50.4995C43.9412 50.4995 43.5615 50.1198 43.5615 49.5882C43.5615 49.0566 43.9412 48.6769 44.4728 48.6769C45.0044 48.6769 45.3841 49.0566 45.3841 49.5882Z" fill="white"/>
<path d="M30.5001 53.6889L30.4241 53.5371L8.85742 26.9584L8.93336 26.8824L30.5001 0.227814L52.1427 26.9584L52.0668 27.0343L30.5001 53.6889ZM9.16118 26.9584L30.5001 53.3092L51.839 26.9584L30.5001 0.607509L9.16118 26.9584Z" fill="white"/>
<path d="M30.1962 43.1334L17.5903 27.1862V26.7305L30.1962 10.7833H30.8037L43.2578 26.7305V27.1862L30.8037 43.1334H30.1962ZM18.4257 26.8824L30.5 42.2221L42.4984 26.8824L30.5 11.5427L18.4257 26.8824Z" fill="white"/>
</svg>
