<svg width="212" height="55" viewBox="0 0 212 55" fill="none" xmlns="http://www.w3.org/2000/svg">
<g clip-path="url(#clip0_220_350)">
<path d="M29.92 54.4204C15.1119 54.4204 3.03757 42.3461 3.03757 27.538C3.03757 12.6539 15.1119 0.57959 29.92 0.57959C44.7281 0.57959 56.8025 12.6539 56.8025 27.462C56.8025 42.3461 44.7281 54.4204 29.92 54.4204ZM29.92 1.33898C15.4916 1.33898 3.79696 13.1095 3.79696 27.538C3.79696 41.9664 15.4916 53.661 29.92 53.661C44.3484 53.661 56.0431 41.9664 56.0431 27.538C56.0431 13.1095 44.3484 1.33898 29.92 1.33898Z" fill="white"/>
<path d="M53.1574 40.7513H6.68265L29.92 11.4388L29.996 11.5907L53.1574 40.7513ZM7.21422 40.4476H52.6258L29.92 11.8185L7.21422 40.4476Z" fill="white"/>
<path d="M29.92 43.5611L29.8441 43.4092L6.68265 14.2486H53.1574L29.92 43.5611ZM7.21422 14.4764L29.92 43.1055L52.6258 14.4764H7.21422Z" fill="white"/>
<path d="M29.92 11.8945C26.8065 11.8945 24.2246 9.38851 24.2246 6.19906C24.2246 3.08556 26.7306 0.503632 29.92 0.503632C33.0335 0.503632 35.6155 3.00962 35.6155 6.19906C35.5395 9.38851 33.0335 11.8945 29.92 11.8945ZM29.92 1.33896C27.1862 1.33896 24.984 3.5412 24.984 6.275C24.984 9.00881 27.1862 11.211 29.92 11.211C32.6539 11.211 34.8561 9.00881 34.8561 6.275C34.8561 3.5412 32.6539 1.33896 29.92 1.33896Z" fill="white"/>
<path d="M16.175 8.24944C14.2765 8.24944 12.7578 6.73065 12.7578 4.83218C12.7578 2.9337 14.2765 1.41492 16.175 1.41492C18.0735 1.41492 19.5923 2.9337 19.5923 4.83218C19.5923 6.73065 18.0735 8.24944 16.175 8.24944ZM16.175 1.71867C14.4284 1.71867 13.0615 3.08558 13.0615 4.83218C13.0615 6.57878 14.4284 7.94568 16.175 7.94568C17.9216 7.94568 19.2885 6.57878 19.2885 4.83218C19.2885 3.08558 17.9216 1.71867 16.175 1.71867Z" fill="white"/>
<path d="M3.41726 30.8793C1.51878 30.8793 0 29.3605 0 27.462C0 25.6395 1.51878 24.1207 3.41726 24.1207C5.31574 24.1207 6.83452 25.6395 6.83452 27.538C6.75858 29.3605 5.2398 30.8793 3.41726 30.8793ZM3.41726 24.3485C1.67066 24.3485 0.303756 25.7154 0.303756 27.462C0.303756 29.2086 1.67066 30.5755 3.41726 30.5755C5.16386 30.5755 6.53076 29.2086 6.53076 27.462C6.53076 25.7914 5.08792 24.3485 3.41726 24.3485Z" fill="white"/>
<path d="M56.4228 30.8793C54.5243 30.8793 53.0055 29.3605 53.0055 27.462C53.0055 25.5636 54.5243 24.0448 56.4228 24.0448C58.3212 24.0448 59.84 25.5636 59.84 27.462C59.84 29.3605 58.3212 30.8793 56.4228 30.8793ZM56.4228 24.3485C54.6762 24.3485 53.3092 25.7154 53.3092 27.462C53.3092 29.2086 54.6762 30.5755 56.4228 30.5755C58.1694 30.5755 59.5363 29.2086 59.5363 27.462C59.5363 25.7914 58.1694 24.3485 56.4228 24.3485Z" fill="white"/>
<path d="M43.8928 8.24944C41.9943 8.24944 40.4755 6.73065 40.4755 4.83218C40.4755 2.9337 41.9943 1.41492 43.8928 1.41492C45.7913 1.41492 47.31 2.9337 47.31 4.83218C47.31 6.73065 45.7913 8.24944 43.8928 8.24944ZM43.8928 1.71867C42.1462 1.71867 40.7793 3.08558 40.7793 4.83218C40.7793 6.57878 42.1462 7.94568 43.8928 7.94568C45.6394 7.94568 47.0822 6.57878 47.0822 4.83218C47.0822 3.08558 45.6394 1.71867 43.8928 1.71867Z" fill="white"/>
<path d="M16.175 53.5851C14.2765 53.5851 12.7578 52.0663 12.7578 50.1678C12.7578 48.2693 14.2765 46.7505 16.175 46.7505C18.0735 46.7505 19.5923 48.2693 19.5923 50.1678C19.5923 52.0663 18.0735 53.5851 16.175 53.5851ZM16.175 47.0543C14.4284 47.0543 13.0615 48.4212 13.0615 50.1678C13.0615 51.9144 14.4284 53.2813 16.175 53.2813C17.9216 53.2813 19.2885 51.9144 19.2885 50.1678C19.2885 48.4212 17.9216 47.0543 16.175 47.0543Z" fill="white"/>
<path d="M43.8928 53.5851C41.9943 53.5851 40.4755 52.0663 40.4755 50.1678C40.4755 48.2693 41.9943 46.7505 43.8928 46.7505C45.7913 46.7505 47.31 48.2693 47.31 50.1678C47.31 52.0663 45.7913 53.5851 43.8928 53.5851ZM43.8928 47.0543C42.1462 47.0543 40.7793 48.4212 40.7793 50.1678C40.7793 51.9144 42.1462 53.2813 43.8928 53.2813C45.6394 53.2813 47.0063 51.9144 47.0063 50.1678C47.0822 48.4212 45.6394 47.0543 43.8928 47.0543Z" fill="white"/>
<path d="M12.9097 31.0312C10.9353 31.0312 9.41647 29.4364 9.41647 27.538C9.41647 25.5636 11.0112 24.0448 12.9097 24.0448C14.8841 24.0448 16.4029 25.6395 16.4029 27.538C16.4788 29.4364 14.8841 31.0312 12.9097 31.0312ZM12.9097 24.2726C11.0871 24.2726 9.64429 25.7154 9.64429 27.538C9.64429 29.3605 11.0871 30.8033 12.9097 30.8033C14.7322 30.8033 16.1751 29.3605 16.1751 27.538C16.1751 25.7154 14.7322 24.2726 12.9097 24.2726Z" fill="white"/>
<path d="M46.9304 31.0312C44.956 31.0312 43.4372 29.4364 43.4372 27.538C43.4372 25.5636 45.0319 24.0448 46.9304 24.0448C48.9048 24.0448 50.4236 25.6395 50.4236 27.538C50.4236 29.4364 48.8289 31.0312 46.9304 31.0312ZM46.9304 24.2726C45.1079 24.2726 43.665 25.7154 43.665 27.538C43.665 29.3605 45.1079 30.8033 46.9304 30.8033C48.7529 30.8033 50.1958 29.3605 50.1958 27.538C50.1958 25.7154 48.677 24.2726 46.9304 24.2726Z" fill="white"/>
<path d="M29.92 54.2685C26.8065 54.2685 24.2246 51.7625 24.2246 48.725C24.2246 45.6115 26.7306 43.1814 29.92 43.1814C33.0335 43.1814 35.6155 45.6874 35.6155 48.725C35.5395 51.7625 33.0335 54.2685 29.92 54.2685ZM29.92 43.8648C27.1862 43.8648 24.984 46.0671 24.984 48.725C24.984 51.3828 27.1862 53.5851 29.92 53.5851C32.6539 53.5851 34.8561 51.3828 34.8561 48.725C34.8561 45.9911 32.6539 43.8648 29.92 43.8648Z" fill="white"/>
<path d="M29.9959 14.4005H29.7681V27.5379H29.9959V14.4005Z" fill="#F96A2D"/>
<path d="M26.8026 15.5798L26.5826 15.6387L29.7664 27.5214L29.9864 27.4624L26.8026 15.5798Z" fill="#F96A2D"/>
<path d="M24.6771 18.2652L24.4798 18.3792L29.7956 27.586L29.9929 27.4721L24.6771 18.2652Z" fill="#F96A2D"/>
<path d="M22.9804 20.4147L22.8193 20.5757L29.8536 27.61L30.0146 27.4489L22.9804 20.4147Z" fill="#F96A2D"/>
<path d="M21.3277 22.4524L21.2137 22.6497L29.8287 27.6237L29.9426 27.4264L21.3277 22.4524Z" fill="#F96A2D"/>
<path d="M19.6649 24.6085L19.6059 24.8286L29.8748 27.58L29.9338 27.3599L19.6649 24.6085Z" fill="#F96A2D"/>
<path d="M42.6018 27.6139H17.0863L29.92 11.287L29.996 11.4389L42.6018 27.6139ZM29.7681 27.3861H42.0703L29.92 11.7427L17.6179 27.3861H29.7681Z" fill="#F96A2D"/>
<path d="M32.8066 15.5783L29.624 27.4621L29.8441 27.5211L33.0267 15.6372L32.8066 15.5783Z" fill="#F96A2D"/>
<path d="M34.9668 18.2275L29.6596 27.4397L29.857 27.5534L35.1642 18.3413L34.9668 18.2275Z" fill="#F96A2D"/>
<path d="M36.7037 20.3451L29.6694 27.3793L29.8305 27.5404L36.8648 20.5062L36.7037 20.3451Z" fill="#F96A2D"/>
<path d="M38.3186 22.4358L29.6986 27.4018L29.8123 27.5992L38.4323 22.6332L38.3186 22.4358Z" fill="#F96A2D"/>
<path d="M40.2769 24.705L29.7455 27.3525L29.8011 27.5734L40.3324 24.9259L40.2769 24.705Z" fill="#F96A2D"/>
<path d="M29.9959 27.3861H29.7681V40.5235H29.9959V27.3861Z" fill="#F96A2D"/>
<path d="M29.7806 27.3307L26.5968 39.2134L26.8168 39.2723L30.0006 27.3897L29.7806 27.3307Z" fill="#F96A2D"/>
<path d="M29.8366 27.3129L24.5294 36.5251L24.7268 36.6388L30.034 27.4266L29.8366 27.3129Z" fill="#F96A2D"/>
<path d="M29.8057 27.2674L22.7705 34.3006L22.9316 34.4617L29.9668 27.4285L29.8057 27.2674Z" fill="#F96A2D"/>
<path d="M29.8102 27.2986L21.1912 32.2667L21.305 32.464L29.9239 27.496L29.8102 27.2986Z" fill="#F96A2D"/>
<path d="M29.8542 27.2354L19.5853 29.9868L19.6443 30.2068L29.9132 27.4554L29.8542 27.2354Z" fill="#F96A2D"/>
<path d="M29.8604 27.3626L29.6408 27.4234L32.9458 39.3522L33.1653 39.2913L29.8604 27.3626Z" fill="#F96A2D"/>
<path d="M29.8592 27.3038L29.6619 27.4177L35.0535 36.756L35.2508 36.6421L29.8592 27.3038Z" fill="#F96A2D"/>
<path d="M29.8657 27.2565L29.7046 27.4176L36.8463 34.5593L37.0073 34.3982L29.8657 27.2565Z" fill="#F96A2D"/>
<path d="M38.5011 32.5499L29.8441 27.5379L29.92 27.3101L38.5771 32.3221L38.5011 32.5499Z" fill="#FF7010"/>
<path d="M29.7784 27.2646L29.7195 27.4846L40.2818 30.3147L40.3408 30.0946L29.7784 27.2646Z" fill="#FF7010"/>
<path d="M31.2869 27.462C31.2869 28.2214 30.6794 28.8289 29.92 28.8289C29.1606 28.8289 28.5531 28.2214 28.5531 27.462C28.5531 26.7026 29.1606 26.0951 29.92 26.0951C30.6794 26.171 31.2869 26.7785 31.2869 27.462Z" fill="#F96A2D"/>
<path d="M13.8209 27.5379C13.8209 28.0695 13.4412 28.4492 12.9096 28.4492C12.378 28.4492 11.9984 28.0695 11.9984 27.5379C11.9984 27.0064 12.378 26.6267 12.9096 26.6267C13.4412 26.6267 13.8209 27.0064 13.8209 27.5379Z" fill="white"/>
<path d="M47.8416 27.5379C47.8416 28.0695 47.4619 28.4492 46.9304 28.4492C46.3988 28.4492 46.0191 28.0695 46.0191 27.5379C46.0191 27.0064 46.3988 26.6267 46.9304 26.6267C47.4619 26.6267 47.8416 27.0064 47.8416 27.5379Z" fill="white"/>
<path d="M30.8313 48.649C30.8313 49.1806 30.4516 49.5603 29.92 49.5603C29.3885 49.5603 29.0088 49.1806 29.0088 48.649C29.0088 48.1174 29.3885 47.7377 29.92 47.7377C30.4516 47.7377 30.8313 48.1174 30.8313 48.649Z" fill="white"/>
<path d="M30.8313 6.27501C30.8313 6.80658 30.4516 7.18628 29.92 7.18628C29.3885 7.18628 29.0088 6.80658 29.0088 6.27501C29.0088 5.74343 29.3885 5.36374 29.92 5.36374C30.4516 5.36374 30.8313 5.74343 30.8313 6.27501Z" fill="white"/>
<path d="M17.2382 4.83217C17.2382 5.36374 16.8585 5.74344 16.3269 5.74344C15.7953 5.74344 15.4156 5.36374 15.4156 4.83217C15.4156 4.30059 15.7953 3.9209 16.3269 3.9209C16.8585 3.9209 17.2382 4.37653 17.2382 4.83217Z" fill="white"/>
<path d="M44.804 4.83217C44.804 5.36374 44.4243 5.74344 43.8928 5.74344C43.3612 5.74344 42.9815 5.36374 42.9815 4.83217C42.9815 4.30059 43.3612 3.9209 43.8928 3.9209C44.4243 3.9209 44.804 4.37653 44.804 4.83217Z" fill="white"/>
<path d="M17.2382 50.1678C17.2382 50.6994 16.8585 51.0791 16.3269 51.0791C15.7953 51.0791 15.4156 50.6994 15.4156 50.1678C15.4156 49.6362 15.7953 49.2565 16.3269 49.2565C16.8585 49.2565 17.2382 49.6362 17.2382 50.1678Z" fill="white"/>
<path d="M4.32852 27.3861C4.32852 27.9176 3.94882 28.2973 3.41725 28.2973C2.88568 28.2973 2.50598 27.9176 2.50598 27.3861C2.50598 26.8545 2.88568 26.4748 3.41725 26.4748C3.87289 26.4748 4.32852 26.8545 4.32852 27.3861Z" fill="white"/>
<path d="M57.334 27.3861C57.334 27.9176 56.9543 28.2973 56.4227 28.2973C55.8912 28.2973 55.5115 27.9176 55.5115 27.3861C55.5115 26.8545 55.8912 26.4748 56.4227 26.4748C56.9543 26.4748 57.334 26.8545 57.334 27.3861Z" fill="white"/>
<path d="M44.804 50.1678C44.804 50.6994 44.4243 51.0791 43.8928 51.0791C43.3612 51.0791 42.9815 50.6994 42.9815 50.1678C42.9815 49.6362 43.3612 49.2565 43.8928 49.2565C44.4243 49.2565 44.804 49.6362 44.804 50.1678Z" fill="white"/>
<path d="M29.9201 54.2685L29.8441 54.1166L8.2774 27.538L8.35334 27.462L29.9201 0.807404L51.5627 27.538L51.4868 27.6139L29.9201 54.2685ZM8.58116 27.538L29.9201 53.8888L51.2589 27.538L29.9201 1.1871L8.58116 27.538Z" fill="white"/>
<path d="M29.6163 43.713L17.0104 27.7658V27.3101L29.6163 11.3629H30.2238L42.6778 27.3101V27.7658L30.2238 43.713H29.6163ZM17.8457 27.462L29.92 42.8017L41.9184 27.462L29.92 12.1223L17.8457 27.462Z" fill="#F96A2D"/>
</g>
<path d="M95.8139 15.106C95.7136 15.106 96.0812 15.9747 94.7112 15.9747C93.9093 15.9747 87.5608 15.9079 85.5226 15.9079C76.5679 15.9079 71.9903 19.0153 71.9903 24.3948C71.9903 28.4378 74.7636 31.2111 76.334 31.2111C78.1049 31.2111 78.5727 28.5381 77.9712 28.4044C77.6037 28.3376 78.0715 28.6049 77.8042 28.939C76.9688 29.8746 72.5917 28.1371 72.5917 24.4282C72.5917 18.5809 79.0739 18.0463 84.2863 17.7122V31.5453V32.1467C83.2171 34.92 82.482 37.426 82.0811 39.5644C81.6133 42.2709 81.7469 44.1755 82.4486 45.2447C82.883 45.9129 83.5178 46.2137 84.2529 46.2137C84.2863 46.2137 84.2863 46.2137 84.2863 46.2137C84.3197 46.2137 84.3532 46.2137 84.3866 46.2137C85.8233 46.2137 86.0906 44.4762 86.0906 41.2685V33.6169V31.5453V17.6788C88.3962 17.6788 93.1408 17.779 93.7757 17.779C95.2459 17.779 96.2817 17.8124 96.2817 16.4759C96.2817 15.9079 96.0812 15.106 95.8139 15.106ZM82.8496 39.6981C83.1169 38.1611 83.6181 36.3902 84.2863 34.4522V40.7673C84.2863 43.574 84.0524 44.2089 83.3508 44.2089C82.0142 44.2089 82.7493 40.2995 82.8496 39.6981ZM102.547 32.6479C102.547 32.4808 102.447 32.3472 102.28 32.3472C102.146 32.3472 102.013 32.4808 102.013 32.6145C101.946 34.3854 101.478 36.1229 100.777 37.426C100.476 38.0274 100.142 38.4284 99.8075 38.7625C99.3732 39.1301 98.9388 39.3305 98.5378 39.3305C98.1703 39.3305 97.7693 38.7959 97.7025 38.0274C97.6023 36.5907 98.1035 32.8818 98.1035 31.1777C98.1035 29.34 97.7025 27.803 96.1321 27.803C94.4614 27.803 93.3922 31.2111 92.9578 33.0489C92.9578 32.9152 92.9578 32.7815 92.9578 32.6145C92.9578 30.2087 93.459 19.2826 90.9196 19.2826C88.9817 19.2826 88.9817 21.8554 88.9817 23.359C88.9817 26.5333 90.3516 29.4402 90.9865 32.1801C90.953 34.352 90.7526 37.3926 90.7526 38.4952C90.7526 40.5 91.8552 40.5334 92.4232 40.3663C92.5903 40.2995 92.7908 40.1993 92.7908 40.1993C92.5903 38.1611 92.8576 37.5262 92.8576 36.2899C92.8576 34.5859 94.1273 29.4068 95.4304 29.4068C96.4996 29.4068 96.2657 31.7123 96.2657 32.6145C96.2657 33.5166 95.8982 36.1563 95.8982 37.1587C95.8982 38.562 95.9984 40.4332 97.7359 40.4332C98.6715 40.4332 99.5402 39.8651 100.342 38.963C100.676 38.6289 100.977 38.1945 101.244 37.6933C102.013 36.3233 102.481 34.4856 102.547 32.6479ZM90.8528 19.8172C91.7884 19.8172 90.8862 23.0917 90.8862 26.1991C90.8862 28.5047 90.953 29.5405 90.9865 30.3424C90.3182 28.1037 89.4829 25.3638 89.4829 23.6932C89.4829 21.3876 89.817 19.8172 90.8528 19.8172ZM113.793 32.6813C113.793 32.5477 113.693 32.414 113.526 32.414C113.392 32.414 113.259 32.5142 113.259 32.6813C113.192 34.4522 112.758 36.1897 112.022 37.4928C111.722 38.0608 111.388 38.4952 111.053 38.8293C110.619 39.1969 110.185 39.3974 109.784 39.3974C109.416 39.3974 109.216 38.8628 109.149 38.0942C109.015 36.1897 109.383 32.7481 109.383 31.2111C109.383 29.1729 108.28 29.1729 107.679 29.34C107.411 28.5715 106.843 27.8698 105.975 27.8698C100.528 27.8698 99.1917 40.5334 104.337 40.5334C106.008 40.5334 107.144 38.395 107.345 37.2255C107.345 37.6933 107.244 40.5 108.982 40.5C109.917 40.5 110.786 39.932 111.588 39.0298C111.922 38.6957 112.223 38.2613 112.49 37.7601C113.259 36.3902 113.726 34.5524 113.793 32.6813ZM107.244 34.8198C107.244 36.5238 105.975 38.8962 104.672 38.8962C101.998 38.8962 102.834 28.7051 106.008 28.7051C106.71 28.7051 107.111 29.0727 107.311 29.5071C107.545 31.5453 107.244 33.5835 107.244 34.8198ZM102.934 26.9676C102.767 27.0345 103.469 27.5023 103.669 27.4354C104.872 27.1681 106.743 24.9963 106.743 24.9963C106.743 24.9963 107.979 27.4354 109.015 27.4354C109.182 27.4354 109.516 27.2684 109.383 27.1681C108.781 26.834 107.378 24.1275 106.977 22.9247C106.944 22.7576 106.075 22.791 106.041 22.9247C105.707 24.2612 103.803 26.5333 102.934 26.9676ZM108.848 19.6502C108.38 19.316 106.643 19.7838 106.843 20.6526C107.144 21.8554 108.648 23.1251 109.283 23.4927C109.283 23.4927 109.65 23.6263 109.817 23.5595C110.084 23.4593 109.884 23.2588 109.884 23.2588C109.45 22.3566 108.314 20.5189 108.614 19.8506C108.648 19.7504 108.982 19.717 108.848 19.6502ZM124.182 32.6479C124.182 32.4808 124.048 32.3472 123.915 32.3472C123.748 32.3472 123.647 32.4808 123.647 32.6145C123.547 34.3854 123.113 36.1229 122.411 37.426C122.077 38.0274 121.743 38.4284 121.409 38.7625C121.008 39.1301 120.573 39.3305 120.139 39.3305C119.771 39.3305 119.404 38.7959 119.304 38.0274C119.304 37.6933 119.304 37.2255 119.337 36.6909C119.437 35.1539 119.738 32.8818 119.738 31.1777C119.738 29.34 119.304 27.803 117.733 27.803C116.163 27.803 114.793 32.0465 114.425 33.5835C114.492 32.6145 114.559 31.7457 114.559 31.1443C114.559 29.5405 113.891 29.2063 113.323 29.2063C112.855 29.2063 112.487 29.4402 112.521 29.4402C112.554 30.0083 112.588 30.877 112.588 31.7792C112.554 33.9844 112.354 37.3257 112.354 38.4952C112.354 40.5 113.456 40.5334 114.024 40.3663C114.191 40.2995 114.526 40.1993 114.526 40.1993C114.325 38.1611 114.459 37.5262 114.459 36.2899C114.459 34.5859 115.762 29.4068 117.065 29.4068C118.101 29.4068 117.867 31.7123 117.867 32.6145C117.867 33.5166 117.499 36.1563 117.499 37.1587C117.499 37.3926 117.499 37.6599 117.533 37.9272C117.6 39.1635 117.934 40.4332 119.337 40.4332C120.273 40.4332 121.175 39.8651 121.943 38.963C122.277 38.6289 122.578 38.1945 122.879 37.6933C123.614 36.3233 124.082 34.4856 124.182 32.6479ZM135.26 44.142C135.293 44.5096 136.229 46.2805 139.537 46.2805C142.811 46.2805 145.351 43.6743 145.351 40.5C145.351 34.0178 133.122 33.8842 133.122 27.8698C133.122 23.6263 137.365 18.3805 141.375 18.3805C142.945 18.3805 145.184 19.3829 145.184 22.0559C145.184 27.3352 138.969 28.7051 136.864 28.7051C136.229 28.7051 136.663 28.1371 136.229 28.371C135.828 28.6049 137.131 30.7099 138.501 30.7099C140.873 30.7099 145.919 26.6001 145.919 22.2898C145.919 19.2492 144.048 17.2778 141.007 17.2778C135.694 17.2778 131.05 22.7242 131.05 27.8698C131.05 35.7887 144.515 35.9892 144.515 40.6337C144.515 42.3043 142.811 44.543 139.537 44.543C137.766 44.543 136.663 42.7387 136.563 42.605C136.262 42.1038 136.964 42.2041 136.864 42.0704C136.463 41.636 135.126 43.0728 135.26 44.142ZM157.409 32.414C157.276 32.3138 157.109 32.3472 157.042 32.4808C156.273 33.5166 154.836 34.0847 153.734 34.3186C153.634 30.6097 151.395 27.803 149.056 27.803C147.586 27.803 146.717 29.0059 146.717 30.309C146.717 30.8436 146.884 31.445 147.218 31.9462C146.784 33.0823 146.55 34.4188 146.55 35.6217C146.55 38.1945 147.586 40.5 149.925 40.5C152.364 40.5 153.667 37.7935 153.734 34.8866C154.937 34.6527 156.574 34.0178 157.476 32.7815C157.543 32.6479 157.543 32.4808 157.409 32.414ZM149.089 28.6049C150.961 28.6049 152.364 31.0106 152.397 34.4522C151.027 34.352 149.925 33.7839 149.223 33.2827C149.123 33.1825 148.989 33.1157 148.856 33.0154C149.123 32.1467 149.39 31.4116 149.39 30.877C149.39 30.1419 148.755 29.6073 148.087 29.7075C147.92 30.1085 147.753 30.7433 147.586 31.0775C147.519 30.8436 147.519 30.6431 147.519 30.4092C147.519 29.5405 147.887 28.6049 149.089 28.6049ZM150.66 39.3305C149.023 39.3305 148.455 37.5596 148.455 35.6885C148.455 34.8866 148.555 34.2183 148.722 33.5835C148.789 33.6169 148.856 33.6837 148.922 33.7171C149.691 34.2517 150.894 34.8866 152.397 34.9868C152.397 37.2923 152.13 39.3305 150.66 39.3305ZM146.483 26.9676C146.316 27.0345 147.018 27.5023 147.218 27.4354C148.421 27.1681 150.292 24.9963 150.292 24.9963C150.292 24.9963 151.529 27.4354 152.564 27.4354C152.731 27.4354 153.066 27.2684 152.932 27.1681C152.33 26.834 150.927 24.1275 150.526 22.9247C150.493 22.7576 149.624 22.791 149.591 22.9247C149.256 24.2612 147.352 26.5333 146.483 26.9676ZM152.564 19.6836C152.431 19.7504 152.765 19.7838 152.798 19.884C153.099 20.5523 151.963 22.39 151.529 23.2922C151.529 23.2922 151.328 23.4927 151.595 23.5929C151.762 23.6597 152.13 23.5261 152.13 23.5261C152.765 23.1585 154.268 21.8888 154.569 20.686C154.77 19.8172 153.032 19.3494 152.564 19.6836ZM188.722 19.9843C188.722 18.1466 189.39 16.9771 190.259 18.7814C190.827 19.884 190.76 21.9891 190.125 24.4951C189.758 25.8316 189.257 27.2015 188.722 28.3042V19.9843ZM168.908 32.982C168.373 33.5501 169.042 33.0489 169.142 32.982C169.442 32.7481 170.378 32.0465 169.71 30.6431C169.242 29.6407 165.867 27.0679 165.867 23.6932C165.867 19.0821 169.342 17.1442 172.049 17.1442C175.323 17.1442 176.927 20.3852 176.927 23.5929V34.4856C174.956 34.3186 172.984 33.2493 172.984 33.2493C172.65 33.0489 172.851 32.5811 172.65 32.982C172.216 33.8842 172.182 34.8866 172.951 35.2541C174.054 35.7219 174.989 35.9224 176.927 35.9892V41.8699C176.927 42.1038 176.927 44.5096 176.894 44.7101C176.894 45.3449 176.058 45.3449 175.958 45.0776C175.557 45.2781 176.092 45.4786 176.56 45.5454C177.929 45.679 178.865 45.2113 178.865 43.6408L178.932 35.889C184.077 35.321 186.784 32.7147 186.784 32.7147L186.817 39.2303C187.118 43.7077 188.12 47.7173 194.101 47.7173C196.307 47.7173 199.347 46.1468 199.347 43.1062C199.347 42.3377 198.412 42.4714 198.412 42.8055C198.679 43.0394 198.946 42.2375 198.946 43.1731C198.946 44.4093 197.677 47.049 194.269 47.049C190.092 47.049 188.722 42.9058 188.722 38.6957V30.0417C189.557 28.7385 190.393 26.7003 190.927 24.6956C191.328 23.1251 191.896 20.1848 190.994 18.3805C190.526 17.4115 189.657 16.9103 188.555 16.9103C186.65 16.9103 186.817 18.6143 186.784 21.4545V31.0106C186.784 32.0799 182.975 34.5859 178.932 34.5859V23.4927C178.932 18.1132 174.521 16.643 172.082 16.6096C167.104 16.6096 164.698 19.8506 164.698 23.927C164.698 27.7027 166.937 30.5094 168.006 31.6789C168.54 32.2804 168.874 32.6813 168.908 32.982ZM195.772 41.2351C194.603 41.2351 194.469 43.7077 195.806 43.7077C196.942 43.7077 197.176 41.3687 195.772 41.2351ZM203.157 32.414C203.023 32.3138 202.856 32.3472 202.789 32.4808C202.021 33.5166 200.584 34.0847 199.481 34.3186C199.381 30.6097 197.142 27.803 194.803 27.803C193.333 27.803 192.464 29.0059 192.464 30.309C192.464 30.8436 192.632 31.445 192.966 31.9462C192.531 33.0823 192.297 34.4188 192.297 35.6217C192.297 38.1945 193.333 40.5 195.672 40.5C198.111 40.5 199.414 37.7935 199.481 34.8866C200.684 34.6527 202.321 34.0178 203.224 32.7815C203.29 32.6479 203.29 32.4808 203.157 32.414ZM194.837 28.6049C196.708 28.6049 198.111 31.0106 198.145 34.4522C196.775 34.352 195.672 33.7839 194.97 33.2827C194.87 33.1825 194.737 33.1157 194.603 33.0154C194.87 32.1467 195.138 31.4116 195.138 30.877C195.138 30.1419 194.503 29.6073 193.834 29.7075C193.667 30.1085 193.5 30.7433 193.333 31.0775C193.266 30.8436 193.266 30.6431 193.266 30.4092C193.266 29.5405 193.634 28.6049 194.837 28.6049ZM196.407 39.3305C194.77 39.3305 194.202 37.5596 194.202 35.6885C194.202 34.8866 194.302 34.2183 194.469 33.5835C194.536 33.6169 194.603 33.6837 194.67 33.7171C195.438 34.2517 196.641 34.8866 198.145 34.9868C198.145 37.2923 197.877 39.3305 196.407 39.3305ZM211.047 32.3472C210.913 32.3472 210.779 32.4808 210.779 32.6145C210.713 34.3854 210.245 36.1229 209.543 37.426C208.775 38.8628 207.338 39.3305 206.469 39.3305C204.097 39.3305 203.896 36.2565 203.896 35.1539C203.896 34.8532 203.896 34.7863 203.896 34.519C203.93 31.3448 204.965 28.6049 206.502 28.6049C206.937 28.6049 207.171 29.1395 207.171 29.7409C207.171 30.2087 207.07 30.7433 206.87 31.278C206.068 30.9772 205.266 31.5453 205.266 32.414C205.266 33.1157 206.436 33.0489 206.803 32.4474C207.405 31.5118 207.739 30.5094 207.739 29.6741C207.739 28.8722 207.638 27.7362 206.536 27.7362C203.395 27.7362 201.858 32.1801 201.858 35.0871C201.858 35.2875 201.858 35.1873 201.858 35.5548C201.925 36.8245 202.259 38.0274 202.927 38.9296C203.863 40.2327 205.099 40.4332 206.302 40.4332C208.541 40.4332 209.744 38.1945 210.011 37.6933C210.746 36.3233 211.247 34.4856 211.314 32.6479C211.314 32.4808 211.214 32.3472 211.047 32.3472Z" fill="white"/>
<defs>
<clipPath id="clip0_220_350">
<rect width="59.84" height="53.8408" fill="white" transform="translate(0 0.57959)"/>
</clipPath>
</defs>
</svg>
