<svg width="60" height="55" viewBox="0 0 60 55" fill="none" xmlns="http://www.w3.org/2000/svg">
<path d="M29.92 54.4204C15.1119 54.4204 3.03757 42.3461 3.03757 27.538C3.03757 12.6539 15.1119 0.57959 29.92 0.57959C44.7281 0.57959 56.8025 12.6539 56.8025 27.462C56.8025 42.3461 44.7281 54.4204 29.92 54.4204ZM29.92 1.33898C15.4916 1.33898 3.79696 13.1095 3.79696 27.538C3.79696 41.9664 15.4916 53.661 29.92 53.661C44.3484 53.661 56.0431 41.9664 56.0431 27.538C56.0431 13.1095 44.3484 1.33898 29.92 1.33898Z" fill="white"/>
<path d="M53.1574 40.7513H6.68265L29.92 11.4388L29.996 11.5907L53.1574 40.7513ZM7.21422 40.4476H52.6258L29.92 11.8185L7.21422 40.4476Z" fill="white"/>
<path d="M29.92 43.5611L29.8441 43.4092L6.68265 14.2486H53.1574L29.92 43.5611ZM7.21422 14.4764L29.92 43.1055L52.6258 14.4764H7.21422Z" fill="white"/>
<path d="M29.92 11.8945C26.8065 11.8945 24.2246 9.38851 24.2246 6.19906C24.2246 3.08556 26.7306 0.503632 29.92 0.503632C33.0335 0.503632 35.6155 3.00962 35.6155 6.19906C35.5395 9.38851 33.0335 11.8945 29.92 11.8945ZM29.92 1.33896C27.1862 1.33896 24.984 3.5412 24.984 6.275C24.984 9.00881 27.1862 11.211 29.92 11.211C32.6539 11.211 34.8561 9.00881 34.8561 6.275C34.8561 3.5412 32.6539 1.33896 29.92 1.33896Z" fill="white"/>
<path d="M16.175 8.24944C14.2765 8.24944 12.7578 6.73065 12.7578 4.83218C12.7578 2.9337 14.2765 1.41492 16.175 1.41492C18.0735 1.41492 19.5923 2.9337 19.5923 4.83218C19.5923 6.73065 18.0735 8.24944 16.175 8.24944ZM16.175 1.71867C14.4284 1.71867 13.0615 3.08558 13.0615 4.83218C13.0615 6.57878 14.4284 7.94568 16.175 7.94568C17.9216 7.94568 19.2885 6.57878 19.2885 4.83218C19.2885 3.08558 17.9216 1.71867 16.175 1.71867Z" fill="white"/>
<path d="M3.41726 30.8793C1.51878 30.8793 0 29.3605 0 27.462C0 25.6395 1.51878 24.1207 3.41726 24.1207C5.31574 24.1207 6.83452 25.6395 6.83452 27.538C6.75858 29.3605 5.2398 30.8793 3.41726 30.8793ZM3.41726 24.3485C1.67066 24.3485 0.303756 25.7154 0.303756 27.462C0.303756 29.2086 1.67066 30.5755 3.41726 30.5755C5.16386 30.5755 6.53076 29.2086 6.53076 27.462C6.53076 25.7914 5.08792 24.3485 3.41726 24.3485Z" fill="white"/>
<path d="M56.4228 30.8793C54.5243 30.8793 53.0055 29.3605 53.0055 27.462C53.0055 25.5636 54.5243 24.0448 56.4228 24.0448C58.3212 24.0448 59.84 25.5636 59.84 27.462C59.84 29.3605 58.3212 30.8793 56.4228 30.8793ZM56.4228 24.3485C54.6762 24.3485 53.3092 25.7154 53.3092 27.462C53.3092 29.2086 54.6762 30.5755 56.4228 30.5755C58.1694 30.5755 59.5363 29.2086 59.5363 27.462C59.5363 25.7914 58.1694 24.3485 56.4228 24.3485Z" fill="white"/>
<path d="M43.8928 8.24944C41.9943 8.24944 40.4755 6.73065 40.4755 4.83218C40.4755 2.9337 41.9943 1.41492 43.8928 1.41492C45.7913 1.41492 47.31 2.9337 47.31 4.83218C47.31 6.73065 45.7913 8.24944 43.8928 8.24944ZM43.8928 1.71867C42.1462 1.71867 40.7793 3.08558 40.7793 4.83218C40.7793 6.57878 42.1462 7.94568 43.8928 7.94568C45.6394 7.94568 47.0822 6.57878 47.0822 4.83218C47.0822 3.08558 45.6394 1.71867 43.8928 1.71867Z" fill="white"/>
<path d="M16.175 53.5851C14.2765 53.5851 12.7578 52.0663 12.7578 50.1678C12.7578 48.2693 14.2765 46.7505 16.175 46.7505C18.0735 46.7505 19.5923 48.2693 19.5923 50.1678C19.5923 52.0663 18.0735 53.5851 16.175 53.5851ZM16.175 47.0543C14.4284 47.0543 13.0615 48.4212 13.0615 50.1678C13.0615 51.9144 14.4284 53.2813 16.175 53.2813C17.9216 53.2813 19.2885 51.9144 19.2885 50.1678C19.2885 48.4212 17.9216 47.0543 16.175 47.0543Z" fill="white"/>
<path d="M43.8928 53.5851C41.9943 53.5851 40.4755 52.0663 40.4755 50.1678C40.4755 48.2693 41.9943 46.7505 43.8928 46.7505C45.7913 46.7505 47.31 48.2693 47.31 50.1678C47.31 52.0663 45.7913 53.5851 43.8928 53.5851ZM43.8928 47.0543C42.1462 47.0543 40.7793 48.4212 40.7793 50.1678C40.7793 51.9144 42.1462 53.2813 43.8928 53.2813C45.6394 53.2813 47.0063 51.9144 47.0063 50.1678C47.0822 48.4212 45.6394 47.0543 43.8928 47.0543Z" fill="white"/>
<path d="M12.9097 31.0312C10.9353 31.0312 9.41647 29.4364 9.41647 27.538C9.41647 25.5636 11.0112 24.0448 12.9097 24.0448C14.8841 24.0448 16.4029 25.6395 16.4029 27.538C16.4788 29.4364 14.8841 31.0312 12.9097 31.0312ZM12.9097 24.2726C11.0871 24.2726 9.64429 25.7154 9.64429 27.538C9.64429 29.3605 11.0871 30.8033 12.9097 30.8033C14.7322 30.8033 16.1751 29.3605 16.1751 27.538C16.1751 25.7154 14.7322 24.2726 12.9097 24.2726Z" fill="white"/>
<path d="M46.9304 31.0312C44.956 31.0312 43.4372 29.4364 43.4372 27.538C43.4372 25.5636 45.0319 24.0448 46.9304 24.0448C48.9048 24.0448 50.4236 25.6395 50.4236 27.538C50.4236 29.4364 48.8289 31.0312 46.9304 31.0312ZM46.9304 24.2726C45.1079 24.2726 43.665 25.7154 43.665 27.538C43.665 29.3605 45.1079 30.8033 46.9304 30.8033C48.7529 30.8033 50.1958 29.3605 50.1958 27.538C50.1958 25.7154 48.677 24.2726 46.9304 24.2726Z" fill="white"/>
<path d="M29.92 54.2685C26.8065 54.2685 24.2246 51.7625 24.2246 48.725C24.2246 45.6115 26.7306 43.1814 29.92 43.1814C33.0335 43.1814 35.6155 45.6874 35.6155 48.725C35.5395 51.7625 33.0335 54.2685 29.92 54.2685ZM29.92 43.8648C27.1862 43.8648 24.984 46.0671 24.984 48.725C24.984 51.3828 27.1862 53.5851 29.92 53.5851C32.6539 53.5851 34.8561 51.3828 34.8561 48.725C34.8561 45.9911 32.6539 43.8648 29.92 43.8648Z" fill="white"/>
<path d="M29.9959 14.4005H29.7681V27.5379H29.9959V14.4005Z" fill="#F96A2D"/>
<path d="M26.8026 15.5798L26.5826 15.6387L29.7664 27.5214L29.9864 27.4624L26.8026 15.5798Z" fill="#F96A2D"/>
<path d="M24.6771 18.2652L24.4798 18.3792L29.7956 27.586L29.9929 27.4721L24.6771 18.2652Z" fill="#F96A2D"/>
<path d="M22.9804 20.4147L22.8193 20.5757L29.8536 27.61L30.0146 27.4489L22.9804 20.4147Z" fill="#F96A2D"/>
<path d="M21.3277 22.4524L21.2137 22.6497L29.8287 27.6237L29.9426 27.4264L21.3277 22.4524Z" fill="#F96A2D"/>
<path d="M19.6649 24.6085L19.6059 24.8286L29.8748 27.58L29.9338 27.3599L19.6649 24.6085Z" fill="#F96A2D"/>
<path d="M42.6018 27.6139H17.0863L29.92 11.287L29.996 11.4389L42.6018 27.6139ZM29.7681 27.3861H42.0703L29.92 11.7427L17.6179 27.3861H29.7681Z" fill="#F96A2D"/>
<path d="M32.8066 15.5783L29.624 27.4621L29.8441 27.5211L33.0267 15.6372L32.8066 15.5783Z" fill="#F96A2D"/>
<path d="M34.9668 18.2275L29.6596 27.4397L29.857 27.5534L35.1642 18.3413L34.9668 18.2275Z" fill="#F96A2D"/>
<path d="M36.7037 20.3451L29.6694 27.3793L29.8305 27.5404L36.8648 20.5062L36.7037 20.3451Z" fill="#F96A2D"/>
<path d="M38.3186 22.4358L29.6986 27.4018L29.8123 27.5992L38.4323 22.6332L38.3186 22.4358Z" fill="#F96A2D"/>
<path d="M40.2769 24.705L29.7455 27.3525L29.8011 27.5734L40.3324 24.9259L40.2769 24.705Z" fill="#F96A2D"/>
<path d="M29.9959 27.3861H29.7681V40.5235H29.9959V27.3861Z" fill="#F96A2D"/>
<path d="M29.7806 27.3307L26.5968 39.2134L26.8168 39.2723L30.0006 27.3897L29.7806 27.3307Z" fill="#F96A2D"/>
<path d="M29.8366 27.3129L24.5294 36.5251L24.7268 36.6388L30.034 27.4266L29.8366 27.3129Z" fill="#F96A2D"/>
<path d="M29.8057 27.2674L22.7705 34.3006L22.9316 34.4617L29.9668 27.4285L29.8057 27.2674Z" fill="#F96A2D"/>
<path d="M29.8102 27.2986L21.1912 32.2667L21.305 32.464L29.9239 27.496L29.8102 27.2986Z" fill="#F96A2D"/>
<path d="M29.8542 27.2354L19.5853 29.9868L19.6443 30.2068L29.9132 27.4554L29.8542 27.2354Z" fill="#F96A2D"/>
<path d="M29.8604 27.3626L29.6408 27.4234L32.9458 39.3522L33.1653 39.2913L29.8604 27.3626Z" fill="#F96A2D"/>
<path d="M29.8592 27.3038L29.6619 27.4177L35.0535 36.756L35.2508 36.6421L29.8592 27.3038Z" fill="#F96A2D"/>
<path d="M29.8657 27.2565L29.7046 27.4176L36.8463 34.5593L37.0073 34.3982L29.8657 27.2565Z" fill="#F96A2D"/>
<path d="M38.5011 32.5499L29.8441 27.5379L29.92 27.3101L38.5771 32.3221L38.5011 32.5499Z" fill="#FF7010"/>
<path d="M29.7784 27.2646L29.7195 27.4846L40.2818 30.3147L40.3408 30.0946L29.7784 27.2646Z" fill="#FF7010"/>
<path d="M31.2869 27.462C31.2869 28.2214 30.6794 28.8289 29.92 28.8289C29.1606 28.8289 28.5531 28.2214 28.5531 27.462C28.5531 26.7026 29.1606 26.0951 29.92 26.0951C30.6794 26.171 31.2869 26.7785 31.2869 27.462Z" fill="#F96A2D"/>
<path d="M13.8209 27.5379C13.8209 28.0695 13.4412 28.4492 12.9096 28.4492C12.378 28.4492 11.9984 28.0695 11.9984 27.5379C11.9984 27.0064 12.378 26.6267 12.9096 26.6267C13.4412 26.6267 13.8209 27.0064 13.8209 27.5379Z" fill="white"/>
<path d="M47.8416 27.5379C47.8416 28.0695 47.4619 28.4492 46.9304 28.4492C46.3988 28.4492 46.0191 28.0695 46.0191 27.5379C46.0191 27.0064 46.3988 26.6267 46.9304 26.6267C47.4619 26.6267 47.8416 27.0064 47.8416 27.5379Z" fill="white"/>
<path d="M30.8313 48.649C30.8313 49.1806 30.4516 49.5603 29.92 49.5603C29.3885 49.5603 29.0088 49.1806 29.0088 48.649C29.0088 48.1174 29.3885 47.7377 29.92 47.7377C30.4516 47.7377 30.8313 48.1174 30.8313 48.649Z" fill="white"/>
<path d="M30.8313 6.27501C30.8313 6.80658 30.4516 7.18628 29.92 7.18628C29.3885 7.18628 29.0088 6.80658 29.0088 6.27501C29.0088 5.74343 29.3885 5.36374 29.92 5.36374C30.4516 5.36374 30.8313 5.74343 30.8313 6.27501Z" fill="white"/>
<path d="M17.2382 4.83217C17.2382 5.36374 16.8585 5.74344 16.3269 5.74344C15.7953 5.74344 15.4156 5.36374 15.4156 4.83217C15.4156 4.30059 15.7953 3.9209 16.3269 3.9209C16.8585 3.9209 17.2382 4.37653 17.2382 4.83217Z" fill="white"/>
<path d="M44.804 4.83217C44.804 5.36374 44.4243 5.74344 43.8928 5.74344C43.3612 5.74344 42.9815 5.36374 42.9815 4.83217C42.9815 4.30059 43.3612 3.9209 43.8928 3.9209C44.4243 3.9209 44.804 4.37653 44.804 4.83217Z" fill="white"/>
<path d="M17.2382 50.1678C17.2382 50.6994 16.8585 51.0791 16.3269 51.0791C15.7953 51.0791 15.4156 50.6994 15.4156 50.1678C15.4156 49.6362 15.7953 49.2565 16.3269 49.2565C16.8585 49.2565 17.2382 49.6362 17.2382 50.1678Z" fill="white"/>
<path d="M4.32852 27.3861C4.32852 27.9176 3.94882 28.2973 3.41725 28.2973C2.88568 28.2973 2.50598 27.9176 2.50598 27.3861C2.50598 26.8545 2.88568 26.4748 3.41725 26.4748C3.87289 26.4748 4.32852 26.8545 4.32852 27.3861Z" fill="white"/>
<path d="M57.334 27.3861C57.334 27.9176 56.9543 28.2973 56.4227 28.2973C55.8912 28.2973 55.5115 27.9176 55.5115 27.3861C55.5115 26.8545 55.8912 26.4748 56.4227 26.4748C56.9543 26.4748 57.334 26.8545 57.334 27.3861Z" fill="white"/>
<path d="M44.804 50.1678C44.804 50.6994 44.4243 51.0791 43.8928 51.0791C43.3612 51.0791 42.9815 50.6994 42.9815 50.1678C42.9815 49.6362 43.3612 49.2565 43.8928 49.2565C44.4243 49.2565 44.804 49.6362 44.804 50.1678Z" fill="white"/>
<path d="M29.9201 54.2685L29.8441 54.1167L8.2774 27.538L8.35334 27.462L29.9201 0.807404L51.5627 27.538L51.4868 27.6139L29.9201 54.2685ZM8.58116 27.538L29.9201 53.8888L51.2589 27.538L29.9201 1.1871L8.58116 27.538Z" fill="white"/>
<path d="M29.6163 43.713L17.0104 27.7658V27.3101L29.6163 11.3629H30.2238L42.6778 27.3101V27.7658L30.2238 43.713H29.6163ZM17.8457 27.462L29.92 42.8017L41.9184 27.462L29.92 12.1223L17.8457 27.462Z" fill="#F96A2D"/>
</svg>
